<?xml version="1.0" encoding="utf-8"?>
<!-- Generator: Adobe Illustrator 25.4.1, SVG Export Plug-In . SVG Version: 6.00 Build 0)  -->
<svg version="1.1" id="Layer_1" xmlns="http://www.w3.org/2000/svg" xmlns:xlink="http://www.w3.org/1999/xlink" x="0px" y="0px"
	 viewBox="0 0 36 36" style="enable-background:new 0 0 36 36;" xml:space="preserve">
<style type="text/css">
	.st0{fill:#0068FF;}
	.st1{fill:#CCD6DD;}
	.st2{fill:#E1E8ED;}
	.st3{fill:#009CF3;}
	.st4{fill:#3E34DF;}
	.st5{fill:#662113;}
	.st6{fill:#66757F;}
</style>
<path class="st0" d="M36,26c0,2.2-1.8,4-4,4H8c-2.2,0-4-1.8-4-4V6.3C4,4.1,9.8,0,12,0h18.6C33.7,0,36,2.3,36,5.4V26z"/>
<path class="st1" d="M34,30c0,2.2-1.8,4-4,4H10c-2.2,0-4-1.8-4-4V6c0-4.1,0-4,5-4h19c2.2,0,4,1.8,4,4V30z"/>
<path class="st2" d="M32,31c0,1.7-1.3,3-3,3H7c-1.7,0-3-1.3-3-3V7c0-1.7,1.3-3,3-3h22c1.7,0,3,1.3,3,3V31z"/>
<path class="st0" d="M32,32c0,2.2-1.8,4-4,4H9c-2.2,0-4-1.8-4-4V10c0-2.2,1.8-4,4-4h19c2.2,0,4,1.8,4,4V32z"/>
<path class="st3" d="M30,32c0,2.2-1.8,4-4,4H9c-2.2,0-4-1.8-4-4V12c0-2.2,1.8-4,4-4h17.3c2.2,0,3.7,1.5,3.7,3.7V32z"/>
<path class="st4" d="M9,6C7.3,6,7.3,4.1,8,3.2C8.8,2.3,10.1,2,12.4,2H14V0h-2.7C7.3,0,4,2.5,4,5.4V32c0,2.2,1.8,4,4,4h2V6H9z"/>
<path class="st5" d="M8.5,33c0,0.7-0.7,1.3-1.5,1.3c-0.8,0-1.5-0.6-1.5-1.3c0-0.7,0.7-1.3,1.5-1.3C7.9,31.7,8.5,32.3,8.5,33z"/>
<path class="st6" d="M6.9,32.3c-0.5,0.1-0.8,0.4-1,0.7c-0.3,0.5-1,1-1.9,1c-1.1,0-2-0.7-2-1.5S2.9,31,4,31v-2
	c-2.2,0-3.9,1.6-3.9,3.5c0,1.9,1.8,3.5,4,3.5c1.9,0,3.3-1,3.9-2.6C8.2,32.7,7.5,32.2,6.9,32.3z"/>
<path class="st5" d="M8.5,25c0,0.7-0.7,1.3-1.5,1.3c-0.8,0-1.5-0.6-1.5-1.3c0-0.7,0.7-1.3,1.5-1.3C7.9,23.7,8.5,24.3,8.5,25z"/>
<path class="st6" d="M6.9,24.3c-0.5,0.1-0.8,0.4-1,0.7c-0.3,0.5-1,1-1.9,1c-1.1,0-2-0.7-2-1.5S2.9,23,4,23v-2
	c-2.2,0-3.9,1.6-3.9,3.5c0,1.9,1.8,3.5,4,3.5c1.9,0,3.3-1,3.9-2.6C8.2,24.7,7.5,24.2,6.9,24.3z"/>
<path class="st5" d="M8.5,17c0,0.7-0.7,1.3-1.5,1.3c-0.8,0-1.5-0.6-1.5-1.3c0-0.7,0.7-1.3,1.5-1.3C7.9,15.7,8.5,16.3,8.5,17z"/>
<path class="st6" d="M6.9,16.3c-0.5,0.1-0.8,0.4-1,0.7c-0.3,0.5-1,1-1.9,1c-1.1,0-2-0.7-2-1.5S2.9,15,4,15v-2
	c-2.2,0-3.9,1.6-3.9,3.5c0,1.9,1.8,3.5,4,3.5c1.9,0,3.3-1,3.9-2.6C8.2,16.7,7.5,16.2,6.9,16.3z"/>
<path class="st5" d="M8.5,9c0,0.7-0.7,1.3-1.5,1.3c-0.8,0-1.5-0.6-1.5-1.3c0-0.7,0.7-1.3,1.5-1.3C7.9,7.7,8.5,8.3,8.5,9z"/>
<path class="st6" d="M6.9,8.3C6.4,8.3,6.1,8.6,5.9,9c-0.3,0.5-1,1-1.9,1c-1.1,0-2-0.7-2-1.5S2.9,7,4,7V5C1.8,5,0.1,6.6,0.1,8.5
	c0,1.9,1.8,3.5,4,3.5c1.9,0,3.3-1,3.9-2.6C8.2,8.7,7.5,8.2,6.9,8.3z"/>
</svg>
